<svg width="100" height="86" viewBox="0 0 86 86" fill="none" xmlns="http://www.w3.org/2000/svg">
<g filter="url(#filter0_d)">
<path fill-rule="evenodd" clip-rule="evenodd" d="M43 61C58.464 61 71 48.464 71 33C71 17.536 58.464 5 43 5C27.536 5 15 17.536 15 33C15 48.464 27.536 61 43 61Z" fill="url(#paint0_linear)"/>
</g>
<path fill-rule="evenodd" clip-rule="evenodd" d="M53.2698 24.0131C53.2698 23.2757 53.5386 22.6385 54.0761 22.1003C54.6137 21.5627 55.2574 21.2943 56.0075 21.2943C56.7698 21.2943 57.4201 21.5627 57.9576 22.1003C58.4949 22.6254 58.7636 23.2695 58.7636 24.0318C58.7636 24.7948 58.4949 25.4445 57.9576 25.9818C57.4326 26.5193 56.7882 26.7881 56.0259 26.7881C55.2636 26.7881 54.6137 26.5193 54.0761 25.9818C53.5386 25.4445 53.2698 24.7883 53.2698 24.0131Z" fill="white"/>
<path fill-rule="evenodd" clip-rule="evenodd" d="M60.5226 32.3712L57.8119 29.8236C57.3057 29.3482 56.665 29.0168 55.9694 28.9335C55.9082 28.9263 55.8467 28.9207 55.7845 28.9174C55.5217 28.9036 55.2558 28.9256 55.0171 28.9611C54.5609 29.029 54.1185 29.1684 53.6972 29.3531L46.8678 32.3485C46.7648 32.3485 46.6645 32.3577 46.5655 32.3712H45.6239C44.3829 32.3712 43.3008 33.3095 43.2637 34.5264C43.2249 35.7859 44.2542 36.8184 45.5289 36.8184H48.2332C50.4512 37.5247 51.3243 40.4874 49.3828 42.1357C49.3644 42.1511 49.3464 42.1665 49.3277 42.1819C47.4935 43.7056 45.4246 44.4677 43.1219 44.4677C40.4167 44.4677 37.906 43.4496 35.5897 41.4132C33.1121 39.2193 31.8739 36.427 31.8739 33.0378C31.8739 29.7537 32.9851 27.0208 35.2081 24.84C37.4305 22.6198 40.1826 21.5099 43.463 21.5099C45.1624 21.5099 46.7418 21.8705 48.2007 22.5896C49.2163 23.09 50.4489 22.8035 51.0769 21.8741L51.1167 21.815C51.8483 20.7323 51.4527 19.2641 50.2703 18.6805C50.2372 18.6641 50.2044 18.648 50.1717 18.6323C48.0693 17.6601 45.8061 17.1739 43.3828 17.1739C38.8701 17.1739 35.0403 18.7182 31.8939 21.8052C28.7473 24.8793 27.174 28.6235 27.174 33.0378C27.174 37.3604 28.7205 41.0651 31.8134 44.1521C34.9065 47.2262 38.6227 48.7637 42.9608 48.7637C47.4062 48.7637 51.0689 47.1741 53.948 43.9943C55.2197 42.576 56.1236 41.052 56.6593 39.4227L56.667 39.3981C57.1435 37.8656 58.5844 36.8184 60.2176 36.8184H60.6175C61.8926 36.8184 62.9215 35.7859 62.8831 34.5264C62.8456 33.3095 61.7635 32.3712 60.5226 32.3712Z" fill="white"/>
<defs>
<filter id="filter0_d" x="0" y="0" width="86" height="86" filterUnits="userSpaceOnUse" color-interpolation-filters="sRGB">
<feFlood flood-opacity="0" result="BackgroundImageFix"/>
<feColorMatrix in="SourceAlpha" type="matrix" values="0 0 0 0 0 0 0 0 0 0 0 0 0 0 0 0 0 0 127 0"/>
<feOffset dy="10"/>
<feGaussianBlur stdDeviation="7.5"/>
<feColorMatrix type="matrix" values="0 0 0 0 0.758333 0 0 0 0 0.758333 0 0 0 0 0.758333 0 0 0 0.25 0"/>
<feBlend mode="normal" in2="BackgroundImageFix" result="effect1_dropShadow"/>
<feBlend mode="normal" in="SourceGraphic" in2="effect1_dropShadow" result="shape"/>
</filter>
<linearGradient id="paint0_linear" x1="70.5682" y1="61" x2="70.5682" y2="5.86362" gradientUnits="userSpaceOnUse">
<stop stop-color="#8283F2"/>
<stop offset="1" stop-color="#89BAF7"/>
</linearGradient>
</defs>
</svg>
